<svg width="72" height="64" viewBox="0 0 72 64" fill="none" xmlns="http://www.w3.org/2000/svg">
<path d="M46.25 63.5557C60.0571 63.5557 71.25 52.3628 71.25 38.5557C71.25 24.7485 60.0571 13.5557 46.25 13.5557C32.4429 13.5557 21.25 24.7485 21.25 38.5557C21.25 52.3628 32.4429 63.5557 46.25 63.5557Z" fill="#FF8B7B" fill-opacity="0.4"/>
<path d="M35.1899 47H47.2499C45.1307 43.3135 43.7993 39.2274 43.3399 35" stroke="#414155" stroke-width="2" stroke-linejoin="round"/>
<path d="M5.19 35C4.71717 39.2287 3.3758 43.3141 1.25 47H13.31" stroke="#414155" stroke-width="2" stroke-linejoin="round"/>
<path d="M7.25 34C7.25 38.5087 9.04107 42.8327 12.2292 46.0208C15.4173 49.2089 19.7413 51 24.25 51C28.7587 51 33.0827 49.2089 36.2708 46.0208C39.4589 42.8327 41.25 38.5087 41.25 34" stroke="#414155" stroke-width="2" stroke-linejoin="round"/>
<path d="M43.25 24V20C43.25 14.9609 41.2482 10.1282 37.685 6.56497C34.1218 3.00178 29.2891 1 24.25 1C19.2109 1 14.3782 3.00178 10.815 6.56497C7.25178 10.1282 5.25 14.9609 5.25 20V24" stroke="#414155" stroke-width="2" stroke-linejoin="round"/>
<path d="M41.25 25C27.44 24.25 14.25 18.55 14.25 13C14.25 14.67 12.43 16.82 11.25 18C9 20.25 7.25 21.16 7.25 24V25" stroke="#414155" stroke-width="2" stroke-linejoin="round"/>
<path d="M7.25 35H4.25C3.45435 35 2.69129 34.6839 2.12868 34.1213C1.56607 33.5587 1.25 32.7956 1.25 32V28C1.25 27.2044 1.56607 26.4413 2.12868 25.8787C2.69129 25.3161 3.45435 25 4.25 25H7.25V35Z" stroke="#414155" stroke-width="2" stroke-linejoin="round"/>
<path d="M47.25 32C47.25 32.7956 46.9339 33.5587 46.3713 34.1213C45.8087 34.6839 45.0456 35 44.25 35H41.25V25H44.25C45.0456 25 45.8087 25.3161 46.3713 25.8787C46.9339 26.4413 47.25 27.2044 47.25 28V32Z" stroke="#414155" stroke-width="2" stroke-linejoin="round"/>
<path d="M24.25 45C25.3546 45 26.25 44.1046 26.25 43C26.25 41.8954 25.3546 41 24.25 41C23.1454 41 22.25 41.8954 22.25 43C22.25 44.1046 23.1454 45 24.25 45Z" stroke="#414155" stroke-width="2" stroke-linejoin="round"/>
<path d="M41.25 31C41.25 34.1826 39.9857 37.2348 37.7353 39.4853C35.4849 41.7357 32.4326 43 29.25 43H26.25" stroke="#414155" stroke-width="2" stroke-linejoin="round"/>
</svg>
